<?xml version="1.0" encoding="UTF-8"?>
<svg version="1.1" xmlns="http://www.w3.org/2000/svg" width="1024" height="1024">
<path d="M0 0 C0.71929688 0.16628906 1.43859375 0.33257812 2.1796875 0.50390625 C16.28798693 3.79909729 29.11045399 9.47804409 42 16 C42.66 16.33 43.32 16.66 44 17 C47.71018423 19.60643766 51.3471986 22.31398249 55 25 C55.98097656 25.70769531 56.96195313 26.41539062 57.97265625 27.14453125 C90.41282437 50.8656028 113.59846585 85.41463331 121.3125 125.0625 C121.56460108 126.70497672 121.79487373 128.3509979 122 130 C122.10957031 130.84949219 122.21914063 131.69898438 122.33203125 132.57421875 C126.02692401 166.32090595 116.07836345 198.56492827 95 225 C92.65895406 227.72943865 90.27677704 230.3934244 87.8125 233.01171875 C85.84389679 235.07099988 85.84389679 235.07099988 84 238 C83.34 238 82.68 238 82 238 C82 238.66 82 239.32 82 240 C80.49609375 241.48046875 80.49609375 241.48046875 78.4375 243.1875 C75.6746132 245.53279758 73.03320243 247.90829405 70.5 250.5 C67.64969916 253.38847451 64.69841424 256.09369035 61.62304688 258.74023438 C58.14855631 261.73352223 54.68384563 264.73803362 51.21875 267.7421875 C50.52362305 268.34474365 49.82849609 268.9472998 49.11230469 269.56811523 C47.40814664 271.04534502 45.70404666 272.52264173 44 274 C45.62159027 273.99666908 45.62159027 273.99666908 47.27593994 273.99327087 C57.45826465 273.97300916 67.64058528 273.95801321 77.82292557 273.94818783 C83.05790293 273.94296672 88.29286403 273.93588304 93.52783203 273.92456055 C98.57877513 273.9137043 103.62970257 273.90771733 108.68065643 273.90512276 C110.60878496 273.90327346 112.53691261 273.89966231 114.46503448 273.89426994 C117.16323201 273.88702325 119.86136464 273.8860106 122.55957031 273.88647461 C123.35870346 273.88287933 124.15783661 273.87928406 124.98118591 273.87557983 C128.49481563 273.8821288 131.61974421 274.05601656 135 275 C133.07745237 281.52562618 130.47927111 287.27975223 127.125 293.1875 C126.49271484 294.33895508 126.49271484 294.33895508 125.84765625 295.51367188 C122.00244274 302.37508498 118.59269699 307.9597135 111 311 C108.03615863 311.41398677 105.11302752 311.41049249 102.12402344 311.38818359 C100.81544121 311.39606903 100.81544121 311.39606903 99.48042297 311.40411377 C96.60655619 311.41727833 93.7332471 311.40858513 90.859375 311.3984375 C88.85166315 311.40045998 86.84395202 311.40337287 84.83624268 311.40713501 C80.6298523 311.41155419 76.42365325 311.40514301 72.21728516 311.39111328 C66.84644103 311.37406588 61.47604818 311.38383703 56.10522079 311.40183067 C51.95801449 311.41271716 47.81091355 311.40919916 43.66370392 311.4014473 C41.68471472 311.39945642 39.70571572 311.40186514 37.72673798 311.40888596 C13.09394722 311.47707291 13.09394722 311.47707291 3.7578125 303.78515625 C-1.53804866 298.40691502 -3.79783905 292.36980849 -4.12109375 284.8828125 C-3.40561567 267.84981811 7.5166361 256.5819588 19.29101562 245.55859375 C22.49846758 242.63339757 25.83303137 239.89052924 29.234375 237.1953125 C32.31305135 234.75150444 35.31727392 232.23227566 38.3125 229.6875 C38.85036133 229.23052734 39.38822266 228.77355469 39.94238281 228.30273438 C41.05311019 227.35818915 42.16345534 226.41319429 43.2734375 225.46777344 C45.06407472 223.94552924 46.85998563 222.42966056 48.65625 220.9140625 C65.58641479 206.58871163 83.23225975 189.79869075 85.3125 166.5 C84.72593465 159.93046808 82.90957034 153.62902347 78 149 C74.87866256 147.65227097 74.87866256 147.65227097 72 147 C72 146.34 72 145.68 72 145 C61.64809989 144.62356727 54.5404288 146.29063552 46.5 153.125 C40.90246605 159.56216405 37.22203521 167.1533966 34 175 C29.63171309 174.42078637 26.01099179 173.33448423 21.98046875 171.56640625 C20.87638672 171.08236328 19.77230469 170.59832031 18.63476562 170.09960938 C17.49716797 169.59236328 16.35957031 169.08511719 15.1875 168.5625 C14.03056641 168.05912109 12.87363281 167.55574219 11.68164062 167.03710938 C3.12737349 163.25474698 3.12737349 163.25474698 2 161 C3.05926547 158.4167201 4.17651549 155.98348296 5.4375 153.5 C5.80294922 152.77748047 6.16839844 152.05496094 6.54492188 151.31054688 C9.70098879 145.25284726 13.3759439 140.04194723 18 135 C18.62519531 134.29488281 19.25039063 133.58976563 19.89453125 132.86328125 C29.76750409 122.30664023 42.32487067 116.30456897 56.375 113.75 C57.26316406 113.57726562 58.15132812 113.40453125 59.06640625 113.2265625 C62.44479891 112.58257237 65.55279938 112 69 112 C64.53817285 100.04230324 57.01190068 89.78793778 49 80 C48.36964844 79.2265625 47.73929688 78.453125 47.08984375 77.65625 C29.87756166 57.26812543 3.27572825 42.29707471 -23.3125 39.5 C-52.39973948 37.07807494 -78.08129417 45.69175084 -100.54296875 64.08203125 C-107.16698355 69.78176491 -115.76322546 77.3402826 -119.03125 85.609375 C-120 88 -120 88 -121.90625 89.90234375 C-136.9954875 105.01973281 -139.76744818 134.32963969 -140.03173828 154.41162109 C-139.67596433 183.2542778 -129.04856045 210.4725173 -110 232 C-109.27296875 232.82757812 -108.5459375 233.65515625 -107.796875 234.5078125 C-101.65397972 241.03748267 -94.42192958 246.04470577 -87 251 C-86.12085938 251.59039063 -85.24171875 252.18078125 -84.3359375 252.7890625 C-63.97792764 265.72004596 -39.56795644 268.30637209 -16 268 C-15.19537766 270.79566206 -14.91313674 273.15340202 -15.04296875 276.0546875 C-15.38915674 287.20705215 -15.44415693 298.3337646 -9 308 C-9.33 308.99 -9.66 309.98 -10 311 C-38.07023276 311.53869652 -64.65029319 310.7000762 -90.6796875 298.91796875 C-93.04905363 297.81606036 -93.04905363 297.81606036 -96 298 C-96 297.34 -96 296.68 -96 296 C-96.79792969 295.78730469 -97.59585938 295.57460938 -98.41796875 295.35546875 C-103.12217419 293.57536048 -107.09537055 291.02765517 -111.3125 288.3125 C-112.15828613 287.77230225 -113.00407227 287.23210449 -113.87548828 286.67553711 C-121.60562619 281.6931458 -128.51682032 276.52975424 -135 270 C-136.12573735 268.91732641 -137.25347505 267.8367303 -138.3828125 266.7578125 C-146.97529841 258.46422554 -154.3682179 249.92979402 -161 240 C-161.70511719 238.95585938 -162.41023438 237.91171875 -163.13671875 236.8359375 C-185.99678779 201.35567317 -193.12545766 157.85652125 -184.25 116.6875 C-176.92923765 85.57254794 -159.807141 56.47310757 -136 35 C-135.27425781 34.34257812 -134.54851562 33.68515625 -133.80078125 33.0078125 C-116.32295849 17.96564345 -95.32229602 6.7459809 -73 1 C-71.91283691 0.70585205 -71.91283691 0.70585205 -70.80371094 0.40576172 C-48.70696267 -5.38103124 -22.19699963 -5.52748814 0 0 Z " fill="#006D79" transform="translate(544,352)"/>
<path d="M0 0 C0.33 0 0.66 0 1 0 C0.97679687 1.28390625 0.95359375 2.5678125 0.9296875 3.890625 C0.71808877 20.69989996 1.28854597 36.98389565 6.29296875 53.12890625 C7 56 7 56 6 59 C0.81065775 45.32858564 -1.11493767 31.83497871 -1.8125 17.3125 C-1.86559326 16.28479492 -1.91868652 15.25708984 -1.97338867 14.19824219 C-2.16340621 9.02122507 -2.13627016 4.84166248 0 0 Z " fill="#024043" transform="translate(403,487)"/>
<path d="M0 0 C3.33530934 4.0707347 5.53284066 8.73991887 7.86328125 13.42382812 C10.06387202 17.69228921 12.49967012 20.64527453 16 24 C17.6875 27.5625 17.6875 27.5625 19 31 C19.65288627 32.34013497 20.31225595 33.67741528 21 35 C17.06307686 31.30167826 14.02252309 27.44657477 11.0625 22.9375 C10.41498779 21.95765137 10.41498779 21.95765137 9.75439453 20.95800781 C0 5.94507137 0 5.94507137 0 0 Z " fill="#013A3B" transform="translate(370,566)"/>
<path d="M0 0 C5.68502535 1.64566523 10.76681636 4.29032784 16 7 C13.29120665 8.35439668 10.99066732 8.06501451 8 8 C8 7.34 8 6.68 8 6 C7.05125 5.7525 6.1025 5.505 5.125 5.25 C2 4 2 4 0.625 1.875 C0.41875 1.25625 0.2125 0.6375 0 0 Z " fill="#01636C" transform="translate(440,642)"/>
<path d="M0 0 C0 0.66 0 1.32 0 2 C0.99 2.33 1.98 2.66 3 3 C-7.89 3.495 -7.89 3.495 -19 4 C-15.52419978 2.26209989 -13.23724995 1.52183172 -9.5 0.875 C-8.5615625 0.70742188 -7.623125 0.53984375 -6.65625 0.3671875 C-4 0 -4 0 0 0 Z " fill="#00454A" transform="translate(613,464)"/>
<path d="M0 0 C3.73127072 3.21661269 5.21332952 6.4521115 7 11 C7.65288627 12.34013497 8.31225595 13.67741528 9 15 C0.79765193 7.01933702 0.79765193 7.01933702 0 0 Z " fill="#015055" transform="translate(382,586)"/>
<path d="M0 0 C-1.50223584 4.20626034 -4.28550034 5.73900021 -8 8 C-8 7.01 -8 6.02 -8 5 C-2.65116279 0 -2.65116279 0 0 0 Z " fill="#015D64" transform="translate(400,399)"/>
<path d="M0 0 C0.33 0 0.66 0 1 0 C1 4.29 1 8.58 1 13 C-2 9 -2 9 -1.85546875 6.640625 C-1.63503906 5.85171875 -1.41460937 5.0628125 -1.1875 4.25 C-0.97480469 3.45078125 -0.76210938 2.6515625 -0.54296875 1.828125 C-0.36378906 1.22484375 -0.18460937 0.6215625 0 0 Z " fill="#014F54" transform="translate(403,487)"/>
<path d="M0 0 C3.81684226 1.55500981 6.19195732 4.03595495 9 7 C6 7 6 7 3.375 4.625 C1 2 1 2 0 0 Z " fill="#015C63" transform="translate(422,630)"/>
<path d="M0 0 C0.33 1.32 0.66 2.64 1 4 C-0.98 5.32 -2.96 6.64 -5 8 C-3.62845496 5.04590299 -2.01136276 2.55991624 0 0 Z " fill="#015055" transform="translate(390,407)"/>
<path d="M0 0 C2.99324263 1.0975223 3.84610901 1.67682892 5.25 4.625 C5.4975 5.40875 5.745 6.1925 6 7 C1.2 4.53846154 1.2 4.53846154 0.1875 1.8125 C0.125625 1.214375 0.06375 0.61625 0 0 Z " fill="#015B63" transform="translate(418,566)"/>
<path d="" fill="#006570" transform="translate(0,0)"/>
<path d="" fill="#016670" transform="translate(0,0)"/>
<path d="M0 0 C3 1 3 1 3 1 Z " fill="#006E7A" transform="translate(537,396)"/>
<path d="M0 0 C2 1 2 1 2 1 Z " fill="#01636C" transform="translate(487,662)"/>
<path d="M0 0 C2 1 2 1 2 1 Z " fill="#00646F" transform="translate(482,661)"/>
<path d="" fill="#026D77" transform="translate(0,0)"/>
<path d="M0 0 C2 1 2 1 2 1 Z " fill="#006F7A" transform="translate(491,616)"/>
<path d="" fill="#006F7B" transform="translate(0,0)"/>
<path d="" fill="#006973" transform="translate(0,0)"/>
<path d="" fill="#01656E" transform="translate(0,0)"/>
<path d="" fill="#006D79" transform="translate(0,0)"/>
<path d="M0 0 C2 1 2 1 2 1 Z " fill="#03737E" transform="translate(601,464)"/>
<path d="M0 0 C2 1 2 1 2 1 Z " fill="#01717A" transform="translate(592,433)"/>
<path d="" fill="#006872" transform="translate(0,0)"/>
<path d="" fill="#026D7A" transform="translate(0,0)"/>
<path d="M0 0 C2 1 2 1 2 1 Z " fill="#016C7B" transform="translate(516,347)"/>
<path d="" fill="#1B1D1C" transform="translate(0,0)"/>
<path d="" fill="#0F1517" transform="translate(0,0)"/>
<path d="" fill="#01626E" transform="translate(0,0)"/>
<path d="" fill="#01636D" transform="translate(0,0)"/>
<path d="" fill="#006A78" transform="translate(0,0)"/>
<path d="" fill="#046B75" transform="translate(0,0)"/>
<path d="" fill="#04616E" transform="translate(0,0)"/>
<path d="" fill="#00636E" transform="translate(0,0)"/>
<path d="" fill="#00646E" transform="translate(0,0)"/>
<path d="" fill="#00626D" transform="translate(0,0)"/>
<path d="" fill="#006670" transform="translate(0,0)"/>
<path d="" fill="#006D78" transform="translate(0,0)"/>
<path d="" fill="#01737F" transform="translate(0,0)"/>
<path d="" fill="#016E7A" transform="translate(0,0)"/>
<path d="" fill="#02737D" transform="translate(0,0)"/>
<path d="" fill="#00717D" transform="translate(0,0)"/>
<path d="" fill="#016B78" transform="translate(0,0)"/>
<path d="" fill="#016D75" transform="translate(0,0)"/>
<path d="" fill="#00737F" transform="translate(0,0)"/>
<path d="" fill="#006E79" transform="translate(0,0)"/>
<path d="" fill="#01636D" transform="translate(0,0)"/>
<path d="" fill="#006F7B" transform="translate(0,0)"/>
<path d="" fill="#016971" transform="translate(0,0)"/>
<path d="" fill="#006973" transform="translate(0,0)"/>
<path d="" fill="#00727E" transform="translate(0,0)"/>
<path d="" fill="#016973" transform="translate(0,0)"/>
<path d="" fill="#046972" transform="translate(0,0)"/>
<path d="" fill="#00737E" transform="translate(0,0)"/>
<path d="" fill="#006E7C" transform="translate(0,0)"/>
<path d="" fill="#026D7A" transform="translate(0,0)"/>
<path d="" fill="#016A74" transform="translate(0,0)"/>
<path d="" fill="#00676F" transform="translate(0,0)"/>
<path d="" fill="#076C76" transform="translate(0,0)"/>
<path d="" fill="#005E66" transform="translate(0,0)"/>
<path d="" fill="#00717B" transform="translate(0,0)"/>
<path d="" fill="#026E79" transform="translate(0,0)"/>
<path d="" fill="#036F7A" transform="translate(0,0)"/>
<path d="" fill="#00747E" transform="translate(0,0)"/>
<path d="" fill="#016872" transform="translate(0,0)"/>
<path d="" fill="#006A76" transform="translate(0,0)"/>
<path d="" fill="#01676F" transform="translate(0,0)"/>
<path d="" fill="#00737D" transform="translate(0,0)"/>
<path d="" fill="#056770" transform="translate(0,0)"/>
<path d="" fill="#007481" transform="translate(0,0)"/>
<path d="" fill="#00676F" transform="translate(0,0)"/>
<path d="" fill="#046E77" transform="translate(0,0)"/>
<path d="" fill="#016C73" transform="translate(0,0)"/>
<path d="" fill="#016F78" transform="translate(0,0)"/>
<path d="" fill="#046C78" transform="translate(0,0)"/>
<path d="" fill="#006975" transform="translate(0,0)"/>
<path d="" fill="#05727E" transform="translate(0,0)"/>
<path d="" fill="#006973" transform="translate(0,0)"/>
<path d="" fill="#01707C" transform="translate(0,0)"/>
<path d="" fill="#006B74" transform="translate(0,0)"/>
<path d="" fill="#006771" transform="translate(0,0)"/>
<path d="" fill="#006672" transform="translate(0,0)"/>
<path d="" fill="#006D79" transform="translate(0,0)"/>
<path d="" fill="#006973" transform="translate(0,0)"/>
<path d="" fill="#006A77" transform="translate(0,0)"/>
<path d="" fill="#00646D" transform="translate(0,0)"/>
<path d="" fill="#016A73" transform="translate(0,0)"/>
<path d="" fill="#016973" transform="translate(0,0)"/>
<path d="" fill="#016970" transform="translate(0,0)"/>
<path d="" fill="#006870" transform="translate(0,0)"/>
<path d="" fill="#006B78" transform="translate(0,0)"/>
<path d="" fill="#00707B" transform="translate(0,0)"/>
<path d="" fill="#006F78" transform="translate(0,0)"/>
</svg>
